<svg xmlns="http://www.w3.org/2000/svg" viewBox="0 0 400 300" fill="none">
  <!-- Table -->
  <rect x="60" y="180" width="280" height="12" rx="4" fill="#2a2a3e"/>
  <rect x="80" y="192" width="12" height="50" rx="3" fill="#2a2a3e"/>
  <rect x="308" y="192" width="12" height="50" rx="3" fill="#2a2a3e"/>
  <!-- Person 1 (left) -->
  <circle cx="120" cy="140" r="22" fill="#2a2a3e"/>
  <rect x="96" y="162" width="48" height="20" rx="6" fill="#2a2a3e"/>
  <!-- Person 2 (center) -->
  <circle cx="200" cy="130" r="26" fill="#16DD47" opacity="0.8"/>
  <rect x="172" y="156" width="56" height="26" rx="8" fill="#16DD47" opacity="0.6"/>
  <!-- Person 3 (right) -->
  <circle cx="280" cy="140" r="22" fill="#2a2a3e"/>
  <rect x="256" y="162" width="48" height="20" rx="6" fill="#2a2a3e"/>
  <!-- Chat bubble center -->
  <rect x="155" y="60" width="90" height="50" rx="10" fill="#16DD47" opacity="0.15"/>
  <rect x="167" y="73" width="50" height="6" rx="3" fill="#16DD47" opacity="0.7"/>
  <rect x="167" y="87" width="66" height="6" rx="3" fill="#16DD47" opacity="0.4"/>
  <polygon points="200,110 190,120 210,120" fill="#16DD47" opacity="0.15"/>
  <!-- Connection lines -->
  <line x1="140" y1="165" x2="172" y2="170" stroke="#16DD47" stroke-width="2" opacity="0.3"/>
  <line x1="228" y1="170" x2="260" y2="165" stroke="#16DD47" stroke-width="2" opacity="0.3"/>
</svg>
