<svg xmlns="http://www.w3.org/2000/svg" viewBox="0 0 400 300" fill="none">
  <!-- Laptop -->
  <rect x="60" y="100" width="200" height="130" rx="8" fill="#1a1a2e"/>
  <rect x="68" y="108" width="184" height="114" rx="4" fill="#0d0d1a"/>
  <!-- Laptop UI -->
  <rect x="78" y="118" width="60" height="8" rx="3" fill="#16DD47" opacity="0.7"/>
  <rect x="78" y="132" width="100" height="6" rx="3" fill="#4a4a6a"/>
  <rect x="78" y="144" width="80" height="6" rx="3" fill="#4a4a6a"/>
  <rect x="78" y="160" width="40" height="30" rx="4" fill="#16DD47" opacity="0.2"/>
  <rect x="126" y="160" width="40" height="30" rx="4" fill="#16DD47" opacity="0.1"/>
  <rect x="60" y="230" width="200" height="10" rx="4" fill="#2a2a3e"/>
  <!-- Phone -->
  <rect x="290" y="120" width="70" height="120" rx="12" fill="#1a1a2e"/>
  <rect x="298" y="132" width="54" height="96" rx="6" fill="#0d0d1a"/>
  <rect x="308" y="142" width="34" height="6" rx="3" fill="#16DD47" opacity="0.7"/>
  <rect x="308" y="154" width="24" height="6" rx="3" fill="#4a4a6a"/>
  <rect x="308" y="166" width="34" height="30" rx="4" fill="#16DD47" opacity="0.15"/>
  <circle cx="325" cy="228" r="4" fill="#4a4a6a"/>
  <!-- Tablet floating top right -->
  <rect x="270" y="50" width="110" height="70" rx="8" fill="#2a2a3e" opacity="0.6"/>
  <rect x="278" y="58" width="94" height="54" rx="4" fill="#16DD47" opacity="0.1"/>
  <rect x="288" y="68" width="50" height="5" rx="2" fill="#16DD47" opacity="0.6"/>
  <rect x="288" y="79" width="74" height="5" rx="2" fill="#4a4a6a"/>
</svg>
